<?xml version="1.0" standalone="no"?>
<!DOCTYPE svg PUBLIC "-//W3C//DTD SVG 20010904//EN"
 "http://www.w3.org/TR/2001/REC-SVG-20010904/DTD/svg10.dtd">
<svg version="1.0" xmlns="http://www.w3.org/2000/svg"
 width="1254.000000pt" height="1254.000000pt" viewBox="0 0 1254.000000 1254.000000"
 preserveAspectRatio="xMidYMid meet">

<g transform="translate(0.000000,1254.000000) scale(0.100000,-0.100000)"
fill="#000000" stroke="none">
<path d="M5965 12484 c-1291 -81 -2464 -523 -3455 -1303 -524 -412 -1000 -930
-1364 -1484 -1439 -2187 -1339 -5048 247 -7126 509 -667 1174 -1250 1877
-1648 813 -459 1687 -721 2620 -784 223 -15 762 -6 960 15 702 77 1282 230
1897 502 1047 463 1979 1255 2628 2234 814 1227 1158 2653 995 4125 -109 979
-480 1970 -1045 2790 -530 769 -1268 1447 -2053 1887 -784 439 -1559 683
-2462 774 -147 14 -707 26 -845 18z m440 -1936 c71 -73 663 -670 1315 -1327
652 -656 1185 -1198 1185 -1203 0 -5 -220 -229 -489 -498 l-490 -489 -645 652
c-355 359 -728 735 -828 837 l-183 185 -182 -185 c-101 -102 -473 -477 -828
-833 l-644 -648 -492 492 -493 493 937 945 c515 520 1108 1117 1316 1328 209
211 382 383 385 383 4 0 65 -60 136 -132z m853 -4189 c-2 -3 -224 -230 -493
-503 l-490 -496 -498 498 -498 499 493 501 493 501 498 -497 c273 -273 496
-500 495 -503z m-3308 9 c0 -8 -927 -948 -948 -962 -11 -6 -137 114 -498 475
-266 266 -483 487 -482 491 2 4 219 226 483 494 l480 487 482 -488 c266 -269
483 -492 483 -497z m6567 0 c-1 -4 -219 -225 -484 -491 l-482 -483 -488 488
-488 488 490 490 490 491 482 -488 c265 -268 481 -491 480 -495z m-5068 -1494
l821 -826 822 827 823 827 475 -477 c261 -262 481 -484 489 -492 12 -12 -170
-198 -1298 -1326 l-1311 -1312 -1310 1310 c-720 720 -1309 1313 -1308 1317 5
12 960 978 968 978 4 0 377 -372 829 -826z"/>
</g>
</svg>
